<svg width="1280" height="640" version="1.1" xmlns="http://www.w3.org/2000/svg">
  <g aria-label="$ @rgdeco_">
    <path d="m129.93 359.38q8.1 0 13.5-1.125 5.625-1.35 8.775-3.6 3.15-2.475 4.5-5.625 1.35-3.375 1.35-7.2 0-5.625-2.7-9.45-2.7-4.05-7.425-6.975-4.5-3.15-10.35-5.4-5.85-2.475-12.15-4.725-6.075-2.25-12.15-4.95-5.85-2.7-10.575-6.525-4.5-4.05-7.425-9.45-2.925-5.625-2.925-13.725 0-14.4 8.55-23.4 8.55-9 24.75-11.475v-23.175h16.65v22.5q9 0.45 16.425 2.25 7.65 1.575 12.15 3.375l-3.825 15.75q-4.725-1.8-11.925-3.6-7.2-2.025-18.225-2.025-12.15 0-18.675 4.5-6.3 4.5-6.3 13.05 0 4.725 1.8 7.875 2.025 3.15 5.625 5.625t8.325 4.5q4.95 2.025 11.025 4.275 7.65 2.925 14.85 6.3 7.2 3.15 12.6 7.65t8.55 10.8q3.375 6.3 3.375 15.075 0 13.275-8.775 22.5t-27 11.475v25.875h-16.65v-25.2q-14.175-0.45-22.95-3.15-8.775-2.7-13.05-5.175l4.95-15.525q6.075 2.925 14.4 5.625 8.325 2.475 20.925 2.475z"/>
    <path d="m407.8 364.32q-6.75 2.7-13.725 3.825-6.975 0.9-12.825 0.9-7.875 0-14.625-2.475-6.75-2.7-11.925-8.1-4.95-5.4-7.875-13.725-2.7-8.55-2.7-20.25 0-20.925 10.8-31.725 10.8-11.025 28.125-11.025 1.8 0 3.375 0.225 1.8 0 3.6 0.225 0-14.175-5.85-22.5t-18.675-8.325q-7.875 0-14.4 3.825t-11.25 12.375q-4.725 8.325-7.425 21.6t-2.7 32.175q0 14.175 2.7 27.45 2.7 13.05 8.325 22.95 5.85 9.9 14.625 15.75 9 6.075 21.375 6.075 9 0 18.675-2.925l1.8 15.075q-11.925 3.15-22.05 3.15-16.425 0-28.575-7.425-11.925-7.2-19.8-19.125-7.65-11.925-11.475-27.225t-3.825-31.275q0-23.175 4.05-39.825 4.275-16.65 11.475-27.225 7.425-10.575 17.1-15.525 9.675-5.175 20.925-5.175 19.8 0 31.275 13.5 11.475 13.275 11.475 37.125zm-45.675-39.825q0 4.5 0.45 9.675 0.675 5.175 2.7 9.675 2.025 4.275 5.625 7.425 3.825 2.925 10.35 2.925 1.8 0 4.05-0.225t4.725-0.9v-55.125q-2.025-0.675-4.05-0.9-1.8-0.225-3.6-0.225-9.675 0-15.075 7.65-5.175 7.425-5.175 20.025z"/>
    <path d="m439.08 378.5v-98.775q22.95-7.875 46.35-7.875 7.2 0 13.725 0.675 6.525 0.45 14.4 2.25l-3.375 16.425q-7.2-2.025-12.825-2.475-5.4-0.675-11.925-0.675-13.725 0-27.9 3.825v86.625z"/>
    <path d="m605.35 368.82q-3.15 1.8-9.675 3.825t-15.075 2.025q-9.225 0-17.325-2.925-7.875-3.15-13.95-9.225-5.85-6.3-9.45-15.75-3.375-9.675-3.375-22.725 0-11.475 3.15-20.925 3.375-9.675 9.45-16.65 6.3-6.975 15.3-10.8 9-4.05 20.475-4.05 13.5 0 22.95 2.025 9.675 1.8 16.2 3.6v93.15q0 24.3-12.375 35.1-12.15 10.8-36.9 10.8-10.125 0-18.45-1.575-8.1-1.575-14.4-3.825l3.375-16.425q5.85 2.475 13.275 4.05 7.65 1.575 16.65 1.575 16.2 0 23.175-6.525t6.975-21.15zm0-78.3q-2.7-0.9-7.425-1.575-4.725-0.9-12.825-0.9-14.4 0-22.05 9.9-7.425 9.9-7.425 26.325 0 9 2.025 15.525 2.25 6.3 5.85 10.575 3.825 4.05 8.55 6.075 4.725 1.8 10.125 1.8 6.975 0 13.05-2.025 6.3-2.025 10.125-4.725z"/>
    <path d="m717.85 296.15q-3.15-2.925-9.225-5.4-6.075-2.7-12.6-2.7-7.425 0-12.825 2.925-5.175 2.925-8.55 8.1-3.375 4.95-4.95 12.15-1.575 6.975-1.575 15.075 0 18.225 8.55 28.125t22.275 9.9q6.975 0 11.7-0.675 4.95-0.675 7.2-1.35zm0-70.425 18.675-3.15v153q-6.075 1.8-15.525 3.6t-22.05 1.8q-11.25 0-20.475-3.825t-15.75-10.8q-6.525-7.2-10.125-17.325t-3.6-22.725q0-12.15 2.925-22.05 3.15-10.125 9-17.325t13.95-11.25q8.325-4.05 18.9-4.05 8.325 0 14.625 2.025t9.45 4.275z"/>
    <path d="m810.77 271.62q21.15 0 32.625 13.275 11.475 13.05 11.475 39.825v6.525h-74.7q1.125 16.2 10.575 24.75 9.675 8.325 27 8.325 9.9 0 16.875-1.575t10.575-3.375l2.475 15.75q-3.375 1.8-12.15 3.825t-19.8 2.025q-13.5 0-23.85-4.05-10.125-4.275-16.875-11.475t-10.125-17.1q-3.375-10.125-3.375-21.825 0-13.95 4.275-24.3t11.25-17.1 15.75-10.125 18-3.375zm25.2 44.55q0-13.275-6.975-20.925-6.975-7.875-18.45-7.875-6.525 0-11.925 2.475-5.175 2.475-9 6.525t-6.075 9.225-2.925 10.575z"/>
    <path d="m876.02 326.52q0-14.175 4.5-24.525t12.375-17.1 18.225-9.9q10.575-3.375 22.5-3.375 7.65 0 15.075 1.125 7.65 0.9 16.2 3.6l-4.275 15.975q-7.425-2.7-13.725-3.375-6.075-0.9-12.375-0.9-8.1 0-15.3 2.25-7.2 2.025-12.6 6.75-5.175 4.5-8.325 11.925-3.15 7.2-3.15 17.55 0 9.9 2.925 17.1 2.925 6.975 8.1 11.7 5.4 4.5 12.825 6.75t16.425 2.25q7.2 0 13.725-0.675 6.75-0.9 14.625-3.6l2.7 15.525q-7.875 2.925-15.975 4.05-8.1 1.35-17.55 1.35-12.6 0-23.175-3.375-10.35-3.6-18-10.35-7.425-6.75-11.7-16.875-4.05-10.35-4.05-23.85z"/>
    <path d="m1081 326.3q0 12.375-3.6 22.5-3.375 9.9-9.675 17.1t-15.075 11.25q-8.775 3.825-19.125 3.825-10.125 0-18.9-3.825-8.55-4.05-14.85-11.25-6.3-7.2-9.9-17.1-3.375-10.125-3.375-22.5t3.375-22.5q3.6-10.125 9.9-17.1 6.3-7.2 14.85-11.025 8.775-4.05 18.9-4.05 10.35 0 19.125 4.05 8.775 3.825 15.075 11.025 6.3 6.975 9.675 17.1 3.6 10.125 3.6 22.5zm-19.125 0q0-17.775-7.65-27.9-7.65-10.35-20.7-10.35-12.825 0-20.475 10.35-7.425 10.125-7.425 27.9 0 17.55 7.425 27.9 7.65 10.125 20.475 10.125 13.05 0 20.7-10.125 7.65-10.35 7.65-27.9z"/>
    <path d="m1091.8 399.88h108.9v15.75h-108.9z"/>
  </g>
</svg>
